<svg width="192" height="192" viewBox="0 0 192 192" fill="none" xmlns="http://www.w3.org/2000/svg">
  <rect width="192" height="192" rx="48" fill="#E1F7EF"/>
  <path d="M96 32c-14 0-26 12-26 26 0 8 4 15 10 20-17-11-40-3-48 16-6 15 2 33 17 39 10 3 20 1 28-6-15 13-16 36-2 48 13 12 33 10 44-4 5-7 8-16 6-24 10 17 32 22 48 12 16-10 21-32 10-48-6-9-16-14-26-14 16-6 24-23 18-39-6-16-23-24-39-18-8 3-14 9-17 16 1-3 1-6 1-8 0-14-12-26-26-26z" fill="#15C27C"/>
  <rect x="90" y="128" width="12" height="40" rx="6" fill="#0F8F58"/>
</svg>

